<?xml version="1.0" standalone="no"?>
<!DOCTYPE svg PUBLIC "-//W3C//DTD SVG 1.1//EN" "http://www.w3.org/Graphics/SVG/1.1/DTD/svg11.dtd" >
<svg xmlns="http://www.w3.org/2000/svg">
<metadata>Generated by IcoMoon</metadata>
<defs>
<font id="icomoon" horiz-adv-x="1024">
<font-face units-per-em="1024" ascent="960" descent="-64" />
<missing-glyph horiz-adv-x="1024" />
<glyph unicode="&#x20;" horiz-adv-x="512" d="" />
<glyph unicode="&#xe900;" glyph-name="account_plus" horiz-adv-x="1075" d="M583.68-23.040c-10.24 15.36-20.48 25.6-25.6 40.96-25.6 46.080-35.84 97.28-35.84 148.48 0 76.8 30.72 148.48 76.8 204.8 10.24 10.24 15.36 20.48 25.6 25.6 0 5.12 25.6 20.48 40.96 30.72 92.16 56.322 148.48 158.722 138.24 266.242-5.12 46.080-20.48 92.16-40.96 122.88-40.96 66.56-107.52 117.76-189.44 133.12-184.321 35.84-348.161-102.4-348.161-281.6 0-97.28 46.079-179.2 117.76-230.402-128-46.080-230.4-143.36-286.72-271.36-20.48-51.2-15.36-107.52 15.36-153.6 40.96-46.080 92.16-76.8 153.6-76.8h399.361c-15.36 15.36-30.72 25.6-40.96 40.96zM778.235 396.81c-2.954-0.988-6.103-1.971-9.37-2.995-13.686-4.285-29.425-9.216-41.83-17.485-10.772-3.594-19.031-9.702-28.303-16.568-3.942-2.918-8.069-5.975-12.657-9.032-51.2-40.96-81.92-107.52-81.92-179.2 0-56.32 20.48-107.52 51.2-148.48v0c15.36-15.36 30.72-30.72 46.080-40.96 35.84-25.6 76.8-40.96 117.76-40.96h15.36c128 0 235.52 107.52 235.52 235.52 5.12 122.88-102.4 230.4-230.4 230.4-20.48 0-40.96-5.12-61.44-10.24zM885.765 212.495h71.68c20.48 0 40.96-20.48 40.96-40.96s-15.36-40.96-40.96-40.96h-71.68v-71.68c0-20.48-20.48-40.96-40.96-40.96s-40.96 15.36-40.96 40.96v71.68h-71.68c-20.48 0-40.96 15.36-40.96 40.96 0 20.48 15.36 40.96 40.96 40.96h71.68v71.68c0 20.48 20.48 40.96 40.96 40.96s40.96-15.36 40.96-40.96v-71.68z" />
<glyph unicode="&#xe901;" glyph-name="account" horiz-adv-x="1161" d="M472.407 462.083c70.997 0 128.683 58.047 128.683 129.492 0 71.443-57.685 129.492-128.683 129.492s-128.683-58.049-128.683-129.492c0-71.444 57.685-129.492 128.683-129.492zM722.261 259.767v-59.080c0-14.082-11.264-25.76-25.6-25.76h-432.128c-13.995 0-25.6 11.679-25.6 25.76v59.080c0 82.778 66.901 150.1 149.163 150.1h185.003c16.725 0 32.768-2.748 47.787-8.243 0 0 0 0.343 0.341 0 58.709-19.922 101.035-75.909 101.035-141.856zM722.261 259.767v-59.080c0-14.082-11.264-25.76-25.6-25.76h-432.128c-13.995 0-25.6 11.679-25.6 25.76v59.080c0 82.778 66.901 150.1 149.163 150.1h185.003c16.725 0 32.768-2.748 47.787-8.243 0 0 0 0.343 0.341 0 58.709-19.922 101.035-75.909 101.035-141.856zM921.602 289.319v-48.43c0-11.336-9.216-20.61-20.48-20.61h-127.659v39.501c0 34.691-8.875 67.666-24.235 96.174-6.485 11.679-13.653 22.67-21.845 32.631-5.803 6.526-11.605 13.053-17.749 18.548h94.891c3.755 0 7.168 0 10.581-0.688 4.437-0.343 8.875-1.031 13.312-2.060 25.941-5.497 48.469-19.922 65.195-39.158 2.731-3.091 5.461-6.526 7.851-10.305 0.341 0 0.341 0 0-0.343 6.485-9.617 11.605-19.922 15.019-31.256 1.024-3.779 2.048-7.557 2.731-11.336 1.707-7.212 2.389-14.769 2.389-22.67zM729.767 466.9c56.368 0 102.059 45.981 102.059 102.7s-45.691 102.7-102.059 102.7c-56.364 0-102.059-45.981-102.059-102.7s45.694-102.7 102.059-102.7z" />
<glyph unicode="&#xe902;" glyph-name="all" d="M268.8 874.667h59.733v-243.2h-243.2v59.733c0 102.4 81.067 183.467 183.467 183.467zM328.533 546.135h-243.2v-200.535h243.2v200.535zM85.333 264.533h243.2v-243.2h-59.733c-102.4 0-183.467 81.067-183.467 183.467v59.733zM614.409 874.667h-200.533v-243.2h200.533v243.2zM614.409 546.135h-200.533v-200.535h200.533v200.535zM614.409 264.533h-200.533v-243.2h200.533v243.2zM938.658 691.2v-59.733h-243.2v243.2h59.733c102.4 0 183.467-81.067 183.467-183.467zM938.658 546.135h-243.2v-200.535h243.2v200.535zM695.458 264.533h243.2v-59.733c0-98.133-81.067-183.467-183.467-183.467h-59.733v243.2z" />
<glyph unicode="&#xe903;" glyph-name="arrow_down" d="M1024 448c0-282.756-229.244-512-512-512-282.757 0-512 229.244-512 512 0 282.757 229.243 512 512 512 282.756 0 512-229.243 512-512zM472.615 330.879l-157.76 156.506-55.483-55.876 252.628-250.685 252.626 250.661-55.481 55.9-157.759-156.506v368.198h-78.769v-368.198z" />
<glyph unicode="&#xe904;" glyph-name="arrow_up_down" d="M158.17 567.17c-16.663-16.662-43.677-16.662-60.34 0s-16.662 43.677 0 60.34l140.497 140.497c33.325 33.325 87.355 33.325 120.679 0l140.497-140.497c16.661-16.663 16.661-43.677 0-60.34s-43.678-16.662-60.339 0l-97.83 97.83v-515.658c0-23.565-19.103-42.667-42.667-42.667s-42.667 19.102-42.667 42.667v515.658l-97.83-97.83zM768 746.667c0 23.564-19.102 42.667-42.667 42.667s-42.667-19.103-42.667-42.667v-515.661l-97.83 97.83c-16.661 16.661-43.678 16.661-60.339 0s-16.661-43.678 0-60.339l140.497-140.497c33.323-33.323 87.356-33.323 120.678 0l140.497 140.497c16.661 16.661 16.661 43.678 0 60.339s-43.678 16.661-60.339 0l-97.83-97.83v515.661z" />
<glyph unicode="&#xe905;" glyph-name="banned" d="M512 960c-282.77 0-512-229.23-512-512s229.23-512 512-512c282.771 0 512 229.229 512 512 0 135.792-53.942 266.020-149.962 362.039s-226.246 149.961-362.038 149.961zM512 38.4c-226.216 0-409.6 183.386-409.6 409.6-0.113 90.963 30.362 179.325 86.528 250.88l573.952-573.952c-71.555-56.166-159.917-86.64-250.88-86.528zM261.12 771.072c71.555 56.166 159.917 86.641 250.88 86.528 226.214 0 409.6-183.384 409.6-409.6 0.112-90.963-30.362-179.325-86.528-250.88l-573.952 573.952z" />
<glyph unicode="&#xe906;" glyph-name="book" horiz-adv-x="755" d="M754.548 666.255v-557.867c0-28.133-24.36-41.553-53.895-62.518-23.714-16.869-53.895 4.042-53.895 31.636v545.094c0 11.372-3.988 22.205-16.923 28.834s-417.039 219.082-417.039 219.082c-6.521 2.425-34.978 20.372-72.92 0.862-36.056-18.54-55.673-38.696-60.685-48.182l440.859-241.556c11.695-6.144 18.918-15.629 18.918-27.81v-582.174c-0.274-13.382-7.928-25.514-19.888-31.528-5.581-2.749-11.724-4.171-17.947-4.15-7.319-0.086-14.519 1.854-20.803 5.605-11.587 7.060-418.978 256.862-445.871 273.085-12.935 7.761-28.079 23.66-28.403 35.463l-6.036 554.364c0 10.671-1.24 29.48 15.576 55.619 37.565 58.422 168.637 124.874 234.981 90.435l485-245.49c11.695-6.036 18.971-18.109 18.971-38.804z" />
<glyph unicode="&#xe907;" glyph-name="building" d="M218.746 835.488c-68.378-17.095-116.346-78.532-116.346-149.014v-648.074h-51.2c-28.277 0-51.2-22.922-51.2-51.2s22.923-51.2 51.2-51.2h921.6c28.278 0 51.2 22.922 51.2 51.2s-22.922 51.2-51.2 51.2h-51.2v460.8c0 84.831-68.767 153.6-153.6 153.6h-51.2v110.474c0 99.928-93.911 173.25-190.853 149.014l-307.201-76.8zM819.2 499.2v-460.8h-102.4v512h51.2c28.278 0 51.2-22.923 51.2-51.2zM358.4 243.2c-28.277 0-51.2-22.922-51.2-51.2s22.923-51.2 51.2-51.2h102.4c28.277 0 51.2 22.922 51.2 51.2s-22.923 51.2-51.2 51.2h-102.4zM307.2 396.8c0 28.278 22.923 51.2 51.2 51.2h102.4c28.277 0 51.2-22.922 51.2-51.2s-22.923-51.2-51.2-51.2h-102.4c-28.277 0-51.2 22.922-51.2 51.2zM358.4 652.8c-28.277 0-51.2-22.923-51.2-51.2s22.923-51.2 51.2-51.2h102.4c28.277 0 51.2 22.923 51.2 51.2s-22.923 51.2-51.2 51.2h-102.4z" />
<glyph unicode="&#xe908;" glyph-name="charge" horiz-adv-x="768" d="M10.333 377.511l414.165 562.75c29.769 40.451 90.606 14.077 85.479-37.057l-30.214-301.325h240.148c40.044 0 62.484-49.217 37.755-82.81l-414.653-563.331c-29.769-40.448-90.599-14.080-85.478 37.052l30.239 301.912h-239.686c-40.041 0-62.479 49.215-37.754 82.81z" />
<glyph unicode="&#xe909;" glyph-name="chrome" d="M113.757 769.835l157.731-242.387c39.433 113.142 153.604 180.655 273.551 173.635l423.852-22.298c-43.355 85.888-111.484 160.628-201.084 212.657-81.137 46.867-170.328 69.165-257.657 68.546-150.712-0.619-298.12-67.926-396.393-190.152zM512.007 275.357c-95.382 0-172.596 77.217-172.596 172.603 0 95.59 77.214 172.603 172.596 172.603s172.595-77.217 172.595-172.603c0-95.386-77.213-172.603-172.595-172.603zM989.539 632.124l-288.421-14.865c78.248-91.464 79.488-223.392 13.627-324.56l-231.435-355.942c96.004-5.16 194.893 15.898 284.496 67.928 221.733 128.007 311.537 396.409 221.733 627.44zM83.408 728.543l192.622-378.858c54.298-106.745 169.085-171.984 288.004-149.687l-131.511-257.668c-245.062 37.577-432.523 249.615-432.523 505.629 0 103.439 30.762 200.062 83.408 280.583z" />
<glyph unicode="&#xe90a;" glyph-name="clock2" horiz-adv-x="922" d="M81.923 791.037c-22.622-16.966-54.714-12.382-71.68 10.24s-12.382 54.714 10.24 71.68l102.4 76.8c22.622 16.966 54.714 12.382 71.68-10.24s12.382-54.714-10.24-71.68l-102.4-76.8zM0 396.8c0 254.493 206.307 460.8 460.8 460.8 254.495 0 460.8-206.307 460.8-460.8 0-254.495-206.305-460.8-460.8-460.8-254.493 0-460.8 206.305-460.8 460.8zM512 601.6c0 28.277-22.922 51.2-51.2 51.2s-51.2-22.923-51.2-51.2v-204.8c0-13.578 5.396-26.604 14.996-36.204l102.4-102.4c19.994-19.994 52.413-19.994 72.407 0s19.994 52.413 0 72.407l-87.404 87.404v183.593zM727.045 939.511c16.963 22.622 49.055 27.206 71.68 10.24l102.4-76.8c22.62-16.966 27.203-49.058 10.24-71.68-16.968-22.621-49.060-27.206-71.68-10.24l-102.4 76.8c-22.625 16.966-27.208 49.059-10.24 71.68z" />
<glyph unicode="&#xe90b;" glyph-name="close_circled" d="M512-64c282.767 0 512 229.233 512 512 0 282.77-229.233 512-512 512-282.77 0-512-229.23-512-512 0-282.767 229.23-512 512-512zM322.196 258.196c-19.995 19.994-19.995 52.413 0 72.407l117.398 117.398-117.393 117.393c-19.995 19.995-19.995 52.413 0 72.408s52.413 19.995 72.408 0l117.391-117.393 117.396 117.395c19.994 19.995 52.413 19.995 72.407 0s19.994-52.413 0-72.408l-117.396-117.394 117.402-117.398c19.994-19.999 19.994-52.413 0-72.407-19.994-19.999-52.413-19.999-72.407 0l-117.402 117.396-117.396-117.396c-19.995-19.994-52.413-19.994-72.408 0z" />
<glyph unicode="&#xe90c;" glyph-name="copy" d="M597.333 746.667c23.565 0 42.667-19.103 42.667-42.667v-341.333c0-23.565-19.102-42.667-42.667-42.667h-341.333c-23.564 0-42.667 19.102-42.667 42.667v341.333c0 23.564 19.103 42.667 42.667 42.667h341.333zM256 832c-70.692 0-128-57.308-128-128v-341.333c0-70.694 57.308-128 128-128h341.333c70.694 0 128 57.306 128 128v341.333c0 70.692-57.306 128-128 128h-341.333zM298.667 533.333c0 70.692 57.308 128 128 128h341.333c70.694 0 128-57.308 128-128v-341.333c0-70.694-57.306-128-128-128h-341.333c-70.692 0-128 57.306-128 128v341.333z" />
<glyph unicode="&#xe90d;" glyph-name="copyclipboard" horiz-adv-x="922" d="M918.528 618.496c1.51-4.487 2.54-9.12 3.072-13.824v-310.272c0-84.833-68.767-153.6-153.6-153.6h-51.2v-51.2c0-84.833-68.767-153.6-153.6-153.6h-409.6c-84.831 0-153.6 68.767-153.6 153.6v512c0 84.831 68.769 153.6 153.6 153.6h51.2v51.2c0 84.831 68.769 153.6 153.6 153.6h207.36c5.949-0.734 11.694-2.649 16.896-5.632 1.531 0.217 3.082 0.217 4.608 0 5.263-2.462 10.102-5.745 14.336-9.728l307.2-307.2c3.983-4.233 7.265-9.072 9.728-14.336v-4.608zM747.008 652.8l-132.608 132.608v-81.408c0-28.277 22.922-51.2 51.2-51.2h81.408zM614.4 89.6v51.2h-256c-84.831 0-153.6 68.767-153.6 153.6v358.4h-51.2c-28.277 0-51.2-22.923-51.2-51.2v-512c0-28.278 22.923-51.2 51.2-51.2h409.6c28.278 0 51.2 22.922 51.2 51.2zM768 243.2c28.278 0 51.2 22.922 51.2 51.2v256h-153.6c-84.833 0-153.6 68.769-153.6 153.6v153.6h-153.6c-28.277 0-51.2-22.923-51.2-51.2v-512c0-28.278 22.923-51.2 51.2-51.2h409.6z" />
<glyph unicode="&#xe90e;" glyph-name="crown" horiz-adv-x="1243" d="M1219.394 556.359l-94.149-533.238c-5.369-30.31-32.395-52.458-64.015-52.458h-894.405c-31.612 0-58.637 22.148-64.009 52.458l-94.151 533.238c-4.158 23.322 5.542 46.984 25.031 61.213 19.578 14.316 45.474 16.589 67.476 6.232l250.667-118.639 205.457 359.285c22.867 40.163 90.688 40.163 113.555 0l205.46-359.285 250.661 118.639c21.921 10.357 47.909 8.084 67.482-6.232 19.405-14.228 29.104-37.89 24.942-61.213z" />
<glyph unicode="&#xe90f;" glyph-name="dashboard" d="M85.333 960h256c47.128 0 85.333-38.205 85.333-85.333v-256c0-47.128-38.205-85.333-85.333-85.333h-256c-47.128 0-85.333 38.205-85.333 85.333v256c0 47.128 38.205 85.333 85.333 85.333zM682.667 960h256c47.13 0 85.333-38.205 85.333-85.333v-256c0-47.128-38.204-85.333-85.333-85.333h-256c-47.128 0-85.333 38.205-85.333 85.333v256c0 47.128 38.205 85.333 85.333 85.333zM341.333 362.667h-256c-47.128 0-85.333-38.205-85.333-85.333v-256c0-47.13 38.205-85.333 85.333-85.333h256c47.128 0 85.333 38.204 85.333 85.333v256c0 47.128-38.205 85.333-85.333 85.333zM682.667 362.667h256c47.13 0 85.333-38.205 85.333-85.333v-256c0-47.13-38.204-85.333-85.333-85.333h-256c-47.128 0-85.333 38.204-85.333 85.333v256c0 47.128 38.205 85.333 85.333 85.333z" />
<glyph unicode="&#xe910;" glyph-name="desktop" horiz-adv-x="1280" d="M230.4 320c-35.843 0-53.765 0-67.455 6.976-12.042 6.138-21.833 15.923-27.969 27.968-6.975 13.69-6.975 31.61-6.975 67.456v332.8c0 71.686 0 107.53 13.951 134.911 12.271 24.084 31.853 43.667 55.938 55.938 27.38 13.951 63.224 13.951 134.911 13.951h614.4c71.686 0 107.533 0 134.912-13.951 24.083-12.271 43.667-31.853 55.936-55.938 13.952-27.38 13.952-63.224 13.952-134.911v-332.8c0-35.846 0-53.766-6.976-67.456-6.138-12.045-15.923-21.83-27.968-27.968-13.69-6.976-31.61-6.976-67.456-6.976h-819.2zM170.667-64c-39.679 0-59.518 0-75.796 4.358-44.172 11.84-78.674 46.342-90.509 90.515-4.362 16.275-4.362 36.115-4.362 75.795 0 19.84 0 29.76 2.18 37.894 5.918 22.086 23.169 39.341 45.255 45.254 8.139 2.182 18.058 2.182 37.898 2.182h1109.336c19.84 0 29.76 0 37.894-2.182 22.086-5.914 39.341-23.168 45.254-45.254 2.182-8.134 2.182-18.054 2.182-37.894 0-39.68 0-59.52-4.358-75.795-11.84-44.173-46.342-78.675-90.515-90.515-16.275-4.358-36.115-4.358-75.795-4.358h-938.664z" />
<glyph unicode="&#xe911;" glyph-name="disabled" horiz-adv-x="986" d="M113.778 429.037c0 209.459 169.8 379.259 379.259 379.259 209.457 0 379.259-169.8 379.259-379.259 0-209.457-169.802-379.259-379.259-379.259-209.459 0-379.259 169.802-379.259 379.259zM732.729 614.874l-425.908-425.15c120.745-93.814 292.432-83.118 400.6 24.951 108.169 108.074 119.015 279.749 25.308 400.577v-0.379zM277.807 644.267c-108.414-108.415-118.91-280.671-24.462-401.446l425.908 425.908c-120.775 94.448-293.031 83.951-401.446-24.462zM306.821 189.724l-80.381 80.524-91.346-91.182 101.92-79.189 69.807 89.847zM732.729 614.874l80.38-80.524 33.398 33.337v47.187h-113.778zM707.421 214.676v0zM732.729 615.253l89.907 69.727-203.685 262.639v-332.366h113.778zM679.253 668.729l80.452-80.453 90.893 90.894-101.255 79.186-70.091-89.627zM253.345 242.821l-89.627-70.091 79.186-101.255 90.894 90.893-80.453 80.452zM493.037 922.074c-272.297 0-493.037-220.74-493.037-493.037h227.556c0 146.622 118.86 265.481 265.481 265.481v227.556zM986.074 429.037c0 272.297-220.74 493.037-493.037 493.037v-227.556c146.622 0 265.481-118.86 265.481-265.481h227.556zM493.037-64c272.297 0 493.037 220.74 493.037 493.037h-227.556c0-146.622-118.86-265.481-265.481-265.481v-227.556zM0 429.037c0-272.297 220.74-493.037 493.037-493.037v227.556c-146.621 0-265.481 118.86-265.481 265.481h-227.556zM387.201 109.2l425.908 425.15-160.76 161.049-425.909-425.15 160.762-161.049zM627.003 295.166c-67.607-67.546-174.911-74.229-250.375-15.595l-139.614-179.693c166.021-128.994 402.091-114.29 550.822 34.312l-160.832 160.977zM642.822 545.527c58.565-75.518 51.784-182.814-15.819-250.36l160.832-160.977c148.734 148.598 163.647 384.652 34.801 550.791l-179.814-139.454zM846.507 614.874v0.379h-227.556v-0.379h227.556zM749.344 758.355c-166.066 129.866-402.921 115.433-551.99-33.636l160.906-160.905c67.758 67.758 175.418 74.318 250.902 15.288l140.182 179.253zM333.798 162.368l425.907 425.907-160.905 160.906-425.909-425.909 160.906-160.905zM197.354 724.72c-149.069-149.069-163.501-385.924-33.636-551.99l179.253 140.182c-59.030 75.484-52.47 183.144 15.289 250.903l-160.906 160.905z" />
<glyph unicode="&#xe912;" glyph-name="discord" horiz-adv-x="1280" d="M1060.918 850.154c-80.784 37.797-167.165 65.267-257.472 80.909-11.091-20.052-24.048-47.022-32.982-68.476-95.997 14.437-191.114 14.437-285.347 0-8.931 21.454-22.182 48.425-33.373 68.476-90.406-15.641-176.884-43.212-257.67-81.109-162.945-246.229-207.116-486.344-185.030-723.052 108.073-80.707 212.81-129.731 315.779-161.814 25.424 34.989 48.096 72.186 67.632 111.386-37.203 14.138-72.835 31.581-106.502 51.834 8.932 6.618 17.669 13.536 26.109 20.653 205.35-96.048 428.467-96.048 631.363 0 8.538-7.117 17.274-14.035 26.109-20.653-33.766-20.352-69.498-37.795-106.698-51.933 19.533-39.101 42.109-76.397 67.629-111.386 103.069 32.083 207.901 81.107 315.974 161.914 25.917 274.403-44.269 512.314-185.52 723.252zM420.429 272.474c-61.642 0-112.196 57.549-112.196 127.629s49.473 127.728 112.196 127.728c62.726 0 113.277-57.549 112.198-127.728 0.096-70.080-49.472-127.629-112.198-127.629zM835.056 272.474c-61.645 0-112.198 57.549-112.198 127.629s49.472 127.728 112.198 127.728c62.723 0 113.274-57.549 112.195-127.728 0-70.080-49.472-127.629-112.195-127.629z" />
<glyph unicode="&#xe913;" glyph-name="earn" horiz-adv-x="1240" d="M448.943 448h116.952c64.323 0 126.011-25.552 171.493-71.033s71.033-107.17 71.033-171.493h-377.317l0.054-53.895h431.158v53.895c-0.172 57.344-16.74 113.448-47.751 161.684h155.54c50.947 0.016 100.848-14.411 143.926-41.607 43.078-27.201 77.565-66.048 99.463-112.047-127.461-168.205-333.824-277.504-566.757-277.504-148.803 0-274.863 31.798-377.263 87.579v501.437c65.569-9.393 127.486-35.963 179.469-77.016zM215.579 43.789c0-14.293-5.678-28.004-15.785-38.109s-23.816-15.786-38.11-15.786h-107.789c-14.294 0-28.002 5.681-38.109 15.786s-15.785 23.816-15.785 38.109v485.053c0 14.294 5.678 28.002 15.785 38.11s23.816 15.785 38.109 15.785h107.789c14.294 0 28.002-5.678 38.11-15.785s15.785-23.816 15.785-38.11v-485.053zM916.211 798.316c42.879 0 84.006-17.035 114.327-47.356s47.357-71.447 47.357-114.328c0-42.881-17.036-84.006-47.357-114.328s-71.448-47.356-114.327-47.356c-42.879 0-84.006 17.035-114.327 47.356s-47.357 71.447-47.357 114.328c0 42.881 17.036 84.006 47.357 114.328s71.448 47.356 114.327 47.356zM538.947 960c42.879 0 84.006-17.035 114.327-47.356s47.357-71.447 47.357-114.328c0-42.881-17.036-84.006-47.357-114.328s-71.448-47.356-114.327-47.356c-42.881 0-84.006 17.035-114.328 47.356s-47.356 71.447-47.356 114.328c0 42.881 17.035 84.006 47.356 114.328s71.447 47.356 114.328 47.356z" />
<glyph unicode="&#xe914;" glyph-name="edit" horiz-adv-x="945" d="M157.538 93.538c0 21.752 17.633 39.385 39.385 39.385h551.385c21.752 0 39.385-17.632 39.385-39.385s-17.632-39.385-39.385-39.385h-551.385c-21.751 0-39.385 17.632-39.385 39.385zM470.229 709.761c-7.692 7.69-20.161 7.69-27.853 0l-152.76-152.76c-7.69-7.688-7.69-20.157 0-27.849l185.386-185.387c7.692-7.692 20.161-7.692 27.853 0l152.761 152.761c7.688 7.688 7.688 20.157 0 27.849l-185.387 185.387zM419.092 270.813c6.467 1.796 7.676 9.795 2.93 14.541l-190.819 190.815c-4.746 4.746-12.742 3.541-14.54-2.926l-57.399-206.486c-9.028-32.477 20.864-62.369 53.343-53.343l206.484 57.399zM539.912 807.298c46.143 46.141 120.95 46.141 167.093-0.001l46.143-46.142c46.143-46.142 46.143-120.953 0-167.095l-13.985-13.985c-7.692-7.69-20.161-7.69-27.849 0l-185.387 185.388c-7.692 7.69-7.692 20.159 0 27.849l13.985 13.986z" />
<glyph unicode="&#xe915;" glyph-name="email" horiz-adv-x="1280" d="M20.927 855.166c18.408 36.127 47.78 65.5 83.907 83.907 41.071 20.927 94.836 20.927 202.366 20.927h665.6c107.533 0 161.293 0 202.368-20.927 36.128-18.408 65.498-47.78 83.904-83.907 20.928-41.071 20.928-94.836 20.928-202.366v-409.6c0-107.533 0-161.293-20.928-202.368-18.406-36.128-47.776-65.498-83.904-83.904-41.075-20.928-94.835-20.928-202.368-20.928h-665.6c-107.53 0-161.295 0-202.366 20.928-36.127 18.406-65.5 47.776-83.907 83.904-20.927 41.075-20.927 94.835-20.927 202.368v409.6c0 107.53 0 161.295 20.927 202.366zM356.204 692.776c-29.148 19.995-68.985 12.575-88.98-16.572s-12.575-68.985 16.572-88.98l247.59-169.848c65.453-44.896 151.776-44.896 217.229 0l247.59 169.848c29.146 19.995 36.563 59.832 16.57 88.98s-59.834 36.566-88.979 16.572l-247.59-169.851c-21.818-14.963-50.592-14.963-72.41 0l-247.591 169.851z" />
<glyph unicode="&#xe916;" glyph-name="exit" d="M674.601 357.343c-5.087 12.717-16.714 21.438-31.248 21.438h-5.087v265.975h-252.53v-147.158h33.065l37.789 47.235c7.63 8.72 19.258 14.534 31.974 14.534h80.664c12.717 0 23.981-6.903 29.795-18.167l23.981-45.419c1.090-1.818 1.818-3.997 1.818-6.904 0-7.994-6.904-15.261-15.261-15.261-6.541 0-10.901 2.907-13.808 7.994l-21.438 41.422h-34.882l26.888-66.857 7.994-85.388h69.037c10.9 0 19.62-6.904 23.98-16.351l7.631-19.621h-119.18c-8.72 0-16.351 6.541-16.714 15.261l-7.994 74.851-63.95-132.624c-3.633-7.63-11.627-12.717-21.073-12.717h-30.885l78.484 162.419-24.344 61.043-23.254-28.342c-5.815-7.631-15.624-12.717-26.162-12.717h-34.155v-191.85l54.502-54.139h-89.444c-39.5 0-71.521 32.021-71.521 71.521v321.686c0 39.5 32.021 71.521 71.521 71.521h322.413c39.5 0 71.521-32.021 71.521-71.521v-341.611c0-28.898-23.425-52.323-52.323-52.323l-54.139 54.139v57.046h47.963l-11.627 30.885zM483.114 257.422l41.785-41.786h-50.505l-54.504 54.139h32.702c11.264 0 22.528-4.723 30.522-12.353zM468.322 561.377c18.204 0 32.962 14.758 32.962 32.962 0 18.205-14.758 32.962-32.962 32.962s-32.962-14.757-32.962-32.962c0-18.204 14.757-32.962 32.962-32.962z" />
<glyph unicode="&#xe917;" glyph-name="eye_look" horiz-adv-x="1280" d="M17.203 528.646c55.637 124.95 231.773 431.354 622.732 431.354 390.971 0 567.092-306.42 622.721-431.366 22.931-51.501 22.931-109.766 0-161.267-55.629-124.947-231.75-431.366-622.721-431.366-390.959 0-567.094 306.406-622.732 431.354-22.938 51.514-22.938 109.779 0 161.293zM639.916 192c141.39 0 256.001 114.618 256.001 256 0 141.385-114.611 256-256.001 256-141.382 0-255.997-114.615-255.997-256 0-141.382 114.615-256 255.997-256zM543.937 448c53.018 0 96 42.982 96 96 0 11.181-1.914 21.907-5.421 31.885 1.798 0.077 3.603 0.115 5.421 0.115 70.693 0 127.999-57.306 127.999-128s-57.306-128-127.999-128c-70.694 0-128 57.306-128 128 0 1.818 0.038 3.622 0.115 5.421 9.978-3.507 20.704-5.421 31.885-5.421z" />
<glyph unicode="&#xe918;" glyph-name="eye_no_look" d="M820.756 139.218l-163.963 163.958c-37.059-37.064-88.264-59.986-144.819-59.986-113.108 0-204.8 91.689-204.8 204.8 0 56.556 22.925 107.757 59.99 144.819l-163.942 163.941c-105.367-79.489-163.598-186.276-189.41-244.243-18.351-41.211-18.351-87.828 0-129.039 44.509-99.958 185.418-345.078 498.187-345.078 131.379 0 232.433 43.249 308.756 100.828zM439.598 520.4c-18.534-18.534-29.998-44.134-29.998-72.41 0-56.556 45.844-102.4 102.4-102.4 28.278 0 53.883 11.464 72.412 29.993l-144.814 144.817zM512.015 857.6c312.776 0 453.673-245.136 498.171-345.093 18.345-41.201 18.345-87.813 0-129.014-7.967-17.905-18.657-39.695-32.456-63.539-14.162-24.474-45.481-32.829-69.96-18.668-24.474 14.162-32.829 45.481-18.668 69.96 11.75 20.306 20.833 38.83 27.535 53.893 6.543 14.694 6.543 31.027 0 45.722-40.591 91.175-156.032 284.339-404.623 284.339l-51.215-0.001c-28.278 0-51.2 22.923-51.2 51.199s22.922 51.201 51.2 51.201l51.215 0.001zM14.996 945.004c19.995 19.995 52.413 19.995 72.408 0l921.599-921.601c19.994-19.994 19.994-52.413 0-72.407s-52.413-19.994-72.407 0l-921.601 921.599c-19.995 19.995-19.995 52.413 0 72.408z" />
<glyph unicode="&#xe919;" glyph-name="facebook" horiz-adv-x="544" d="M423.101 777.206h92.643v156.705c-44.854 4.664-89.926 6.967-135.021 6.9-134.038 0-225.695-81.803-225.695-231.609v-129.109h-151.284v-175.43h151.284v-449.414h181.343v449.414h150.79l22.669 175.43h-173.459v111.862c0 51.742 13.798 85.251 86.73 85.251z" />
<glyph unicode="&#xe91a;" glyph-name="firefox" d="M1004.478 588.281v0.161c-0.505 1.737-1.031 3.474-1.554 5.211-0.117 0.432-0.252 0.867-0.391 1.279-0.98 3.291-1.989 6.583-3.039 9.852l-0.139 0.457c-6.415 19.925-14.047 39.438-22.861 58.425-8.536 18.806-18.388 36.985-29.488 54.402-42.873 68.864-101.42 126.619-170.862 168.556-79.715 48.14-171.099 73.517-264.225 73.374-16.004 0-32.004-0.777-47.594-2.286-55.142-5.806-148.093-25.624-223.511-91.844 274.535 140.166 641.31-28.618 610.107-342.459-11.11-112.007-106.211-188.968-194.75-201.955-15.748-2.406-31.759-2.567-47.55-0.479-216.24 30.058-203.004 207.28-137.304 283.053-86.868 0.549-154.24-106.954-121.503-212.58-75.326 139.845 0.8 358.872 162.153 425.161-189.631 27.43-367.396-64.46-424.525-224.172 6.822 58.38 20.441 115.761 40.578 170.981 0 0-103.376-81.695-124.454-253.497-0.32-2.651-0.617-5.303-0.892-7.976-0.114-0.914-0.206-1.829-0.297-2.768-0.808-7.998-1.417-16.051-1.829-24.159 0-0.618 0-1.236 0-1.854-0.16-3.383-0.297-6.857-0.389-10.192v-2.856c0-4.023-0.16-8.049-0.16-12.094 0-282.778 229.27-512.022 512.080-512.022s511.92 229.2 511.92 511.978c0.026 47.444-6.546 94.665-19.522 140.303z" />
<glyph unicode="&#xe91b;" glyph-name="game_stick" horiz-adv-x="1365" d="M1060.925 960c71.612 0 206.234-99.191 266.445-435.473 34.406-192.034 71.68-478.549-17.135-512.956-76.111-29.478-117.583 12.145-175.671 70.431v0l-0.007 0.007c-26.262 26.351-55.917 56.115-93.703 84.255-123.221 91.682-182.34 113.254-358.197 113.254-175.855 0-234.974-21.572-358.195-113.254-37.764-28.146-67.407-57.89-93.656-84.234-58.115-58.32-99.588-99.942-175.724-70.458-88.815 34.406-51.541 320.99-17.203 512.956 60.211 336.282 194.901 435.473 266.513 435.473 45.816 0 77.668-13.964 115.694-30.636 54.726-23.993 122.24-53.592 262.571-55.244 140.331 1.651 207.847 31.251 262.569 55.244 38.031 16.671 69.878 30.636 115.698 30.636zM273.058 617.438c0-75.405 61.128-136.533 136.533-136.533s136.533 61.128 136.533 136.533c0 75.405-61.128 136.533-136.533 136.533s-136.533-61.128-136.533-136.533zM887.46 480.905c-37.704 0-68.267 30.564-68.267 68.267s30.563 68.267 68.267 68.267c37.704 0 68.267-30.564 68.267-68.267s-30.563-68.267-68.267-68.267zM955.727 685.705c0-37.702 30.563-68.267 68.267-68.267s68.267 30.564 68.267 68.267c0 37.702-30.563 68.267-68.267 68.267s-68.267-30.564-68.267-68.267z" />
<glyph unicode="&#xe91c;" glyph-name="gamepad" horiz-adv-x="1280" d="M960 320c35.347 0 64 28.654 64 64s-28.653 64-64 64c-35.347 0-64-28.654-64-64s28.653-64 64-64zM704 896c0 35.346-28.653 64-64 64s-64-28.654-64-64v-64h-320c-141.385 0-256-114.615-256-256v-384c0-141.382 114.615-256 256-256h768c141.382 0 256 114.618 256 256v384c0 141.385-114.618 256-256 256h-320v64zM1152 384c0-106.042-85.958-192-192-192s-192 85.958-192 192c0 106.038 85.958 192 192 192s192-85.962 192-192zM320 576c35.346 0 64-28.654 64-64v-64h64c35.346 0 64-28.653 64-64s-28.654-64-64-64h-64v-64c0-35.347-28.654-64-64-64s-64 28.653-64 64v64h-64c-35.346 0-64 28.654-64 64s28.654 64 64 64h64v64c0 35.346 28.654 64 64 64z" />
<glyph unicode="&#xe91d;" glyph-name="gift" d="M469.333 298.667c0 11.78-9.553 21.333-21.333 21.333h-234.667c-23.564 0-42.667-19.102-42.667-42.667v-85.333c0-70.694 57.308-128 128-128h149.333c11.78 0 21.333 9.553 21.333 21.333v213.333zM554.667 85.333c0-11.78 9.553-21.333 21.333-21.333h149.333c70.694 0 128 57.306 128 128v85.333c0 23.565-19.102 42.667-42.667 42.667h-234.667c-11.78 0-21.333-9.553-21.333-21.333v-213.333zM213.333 576c-47.128 0-85.333-38.205-85.333-85.333 0-47.13 38.205-85.333 85.333-85.333h234.667c11.78 0 21.333 9.553 21.333 21.333v128c0 11.782-9.553 21.333-21.333 21.333h-234.667zM576 576c-11.78 0-21.333-9.551-21.333-21.333v-128c0-11.78 9.553-21.333 21.333-21.333h234.667c47.13 0 85.333 38.204 85.333 85.333s-38.204 85.333-85.333 85.333h-234.667zM384 832c-47.128 0-85.333-38.205-85.333-85.333s38.205-85.333 85.333-85.333h64c11.78 0 21.333 9.551 21.333 21.333v64c0 47.128-38.204 85.333-85.333 85.333zM640 832c47.13 0 85.333-38.205 85.333-85.333s-38.204-85.333-85.333-85.333h-64c-11.78 0-21.333 9.551-21.333 21.333v64c0 47.128 38.204 85.333 85.333 85.333z" />
<glyph unicode="&#xe91e;" glyph-name="howtoplay" horiz-adv-x="819" d="M307.2 908.8c0 28.277 22.922 51.2 51.2 51.2s51.2-22.923 51.2-51.2v-102.409l175.104 0.004c9.242 0.024 20.879 0.053 32.389-2.575 9.979-2.28 19.564-6.044 28.431-11.166 10.199-5.893 18.688-13.816 25.441-20.116l0.041-0.037 1.812-1.691 110.464-102.594c4.772-4.434 10.394-9.654 14.935-14.643 5.228-5.743 12.344-14.644 16.625-27.174 5.489-16.083 5.489-33.533 0-49.616-4.28-12.531-11.397-21.432-16.625-27.177-4.557-5.007-10.204-10.245-14.996-14.689l-112.236-104.253c-6.753-6.303-15.252-14.234-25.462-20.137-8.868-5.12-18.452-8.883-28.431-11.167-11.489-2.621-23.107-2.596-32.338-2.575h-0.051l-2.478 0.005h-172.626v-358.39h51.2c28.278 0 51.2-22.922 51.2-51.2s-22.922-51.2-51.2-51.2h-204.8c-28.277 0-51.2 22.922-51.2 51.2s22.923 51.2 51.2 51.2h51.2v358.39h-175.717c-12.921 0-25.504 0-36.16 0.87-11.704 0.952-25.514 3.21-39.412 10.291-19.267 9.82-34.933 25.482-44.75 44.749-7.081 13.901-9.337 27.709-10.293 39.414-0.871 10.659-0.869 23.244-0.868 36.161v146.633c-0.002 12.921-0.003 25.505 0.868 36.162 0.956 11.704 3.212 25.514 10.293 39.411 9.818 19.268 25.483 34.933 44.75 44.75 13.897 7.081 27.707 9.337 39.412 10.293 10.657 0.871 23.241 0.869 36.163 0.868h175.714v102.409z" />
<glyph unicode="&#xe91f;" glyph-name="image" d="M0 806.4c0 84.831 68.769 153.6 153.6 153.6h716.8c84.833 0 153.6-68.769 153.6-153.6v-716.8c0-84.833-68.767-153.6-153.6-153.6h-716.8c-84.831 0-153.6 68.767-153.6 153.6v716.8zM874.655 38.574c24.704 2.033 24.289 33.3 7.547 51.584l-443.466 484.313c-62.837 68.549-171.694 65.979-231.226-5.459l-93.242-111.891c-7.668-9.202-11.867-20.799-11.867-32.775v-334.746c0-28.278 22.923-51.2 51.2-51.2h716.8c1.434 0 2.852 0.061 4.255 0.174zM768 601.6c56.556 0 102.4 45.846 102.4 102.4s-45.844 102.4-102.4 102.4c-56.556 0-102.4-45.846-102.4-102.4s45.844-102.4 102.4-102.4z" />
<glyph unicode="&#xe920;" glyph-name="inventory" horiz-adv-x="1138" d="M617.978 806.4l-92.406 91.022c-40.429 39.822-92.409 62.578-144.388 62.578h-225.245c-86.633 0-155.939-68.267-155.939-153.6v-711.111c0-91.022 69.306-159.289 155.939-159.289h825.9c86.63 0 155.938 68.267 155.938 153.6v557.511c0 85.333-69.308 153.6-155.938 153.6h-363.861v5.689z" />
<glyph unicode="&#xe921;" glyph-name="layer" horiz-adv-x="960" d="M224 579.699v-63.678c0-31.84 98.909-81.046 256-81.046s256 46.312 256 81.046v63.678c-58.182-37.629-157.091-54.995-256-54.995s-197.818 20.261-256 54.995zM480 576.805c157.091 0 256 46.31 256 81.045 0 34.733-98.909 78.15-256 78.15s-256-46.312-256-78.15c0-31.84 98.909-81.045 256-81.045zM480 246.834c-98.909 0-197.818 17.368-256 54.995v-63.678c0-31.838 98.909-78.15 256-78.15s256 46.312 256 78.15v63.678c-58.182-37.627-157.091-54.995-256-54.995zM480 385.77c-98.909 0-197.818 17.366-256 54.994v-63.678c0-31.838 98.909-78.15 256-78.15s256 46.312 256 78.15v63.678c-58.182-34.733-157.091-54.994-256-54.994z" />
<glyph unicode="&#xe922;" glyph-name="material" d="M665.591 290.133c-17.067 0-29.867 8.533-38.4 21.333l-51.2 89.6c-21.333 46.933-64 89.6-110.933 115.2l-89.6 51.2c-12.8 4.267-21.333 21.333-21.333 34.133 0 17.067 8.533 29.867 21.333 38.4l89.6 51.2c46.933 25.6 89.6 64 115.2 115.2l51.2 89.6c4.267 12.8 21.333 21.333 34.133 21.333 17.067 0 29.867-8.533 38.4-21.333l51.2-89.6c25.6-46.933 68.267-89.6 115.2-115.2l89.6-51.2c12.8-8.533 21.333-21.333 21.333-38.4s-8.533-29.867-21.333-38.4l-89.6-51.2c-46.933-25.6-89.6-68.267-115.2-115.2l-51.2-89.6c-8.533-8.533-21.333-17.067-38.4-17.067zM277.333-21.333c-17.067 0-29.867 8.533-38.4 21.333l-25.6 51.2c-21.333 42.667-55.467 76.8-98.133 98.133l-51.2 25.6c-12.8 8.533-21.333 25.6-21.333 38.4 0 17.067 8.533 29.867 21.333 38.4l51.2 25.6c42.667 21.333 76.8 55.467 98.133 98.133l25.6 51.2c17.067 25.6 59.733 25.6 76.8 0l25.6-51.2c21.333-42.667 55.467-76.8 98.133-98.133l51.2-25.6c12.8-8.533 21.333-21.333 21.333-38.4s-8.533-29.867-21.333-38.4l-46.933-25.6c-42.667-21.333-76.8-55.467-98.133-98.133l-25.6-51.2c-12.8-12.8-25.6-21.333-42.667-21.333z" />
<glyph unicode="&#xe923;" glyph-name="medium" horiz-adv-x="1843" d="M543.258 944.3c272.215 0 492.877-222.198 492.877-496.274 0-274.074-220.677-496.256-492.877-496.256-272.201 0-492.892 222.182-492.892 496.256 0 274.076 220.674 496.274 492.892 496.274zM1330.371 915.23c136.11 0 246.446-209.153 246.446-467.204h0.015c0-257.981-110.336-467.205-246.446-467.205s-246.446 209.224-246.446 467.205c0 257.983 110.321 467.204 246.431 467.204zM1711.319 866.567c47.857 0 86.671-187.384 86.671-418.541 0-231.091-38.799-418.54-86.671-418.54-47.877 0-86.661 187.397-86.661 418.54 0 231.14 38.799 418.541 86.661 418.541z" />
<glyph unicode="&#xe924;" glyph-name="messages" d="M256 682.665v-64h-64c-58.91 0-106.667-47.756-106.667-106.665v-442.842c0-53.666 62.076-83.499 103.98-49.975l103.509 82.807c3.783 3.025 8.483 4.676 13.327 4.676h355.183c58.91 0 106.667 47.753 106.667 106.667v64h64c58.91 0 106.667 47.753 106.667 106.667v456.413c0 51.117-56.969 81.606-99.499 53.251l-151.125-100.75c-3.507-2.336-7.625-3.583-11.836-3.583h-313.54c-58.91 0-106.667-47.756-106.667-106.667zM661.333 618.665h-320v64c0 11.782 9.551 21.333 21.333 21.333h313.54c21.060 0 41.647 6.233 59.17 17.914l117.956 78.639v-416.552c0-11.785-9.553-21.333-21.333-21.333h-64v149.333c0 58.909-47.757 106.665-106.667 106.665zM298.667 405.333c-23.564 0-42.667-19.102-42.667-42.667s19.103-42.667 42.667-42.667h256c23.565 0 42.667 19.102 42.667 42.667s-19.102 42.667-42.667 42.667h-256z" />
<glyph unicode="&#xe925;" glyph-name="mobile-devices" horiz-adv-x="922" d="M512-64c-56.554 0-102.4 45.844-102.4 102.4v512c0 56.554 45.846 102.4 102.4 102.4h307.2c56.556 0 102.4-45.846 102.4-102.4v-512c0-56.556-45.844-102.4-102.4-102.4h-307.2zM358.4-64v204.8h-256v716.8h614.4v-153.6h102.4v153.6c0 56.554-45.844 102.4-102.4 102.4h-614.4c-56.32 0-102.4-46.080-102.4-102.4v-819.2c0-56.556 45.846-102.4 102.4-102.4h256zM512 550.4v-409.6h307.2v409.6h-307.2zM716.8 38.4c0 28.278-22.922 51.2-51.2 51.2s-51.2-22.922-51.2-51.2c0-28.278 22.922-51.2 51.2-51.2s51.2 22.922 51.2 51.2z" />
<glyph unicode="&#xe926;" glyph-name="naka" horiz-adv-x="2048" d="M1534.541 432.185c-36.975-168.279-197.7-140.743-197.7-140.743-173.525 21.414-157.867 231.006-157.867 231.006h358.409l-2.842-90.263zM711.158 291.442c0 0-160.727-27.536-197.701 140.743l-2.842 90.263h358.412c0 0 15.659-209.592-157.868-231.006zM503.502 814.649c0 0-78.235-3.046-78.235 67.318v78.033h-187.732v-253.966h-237.534v-175.933h234.677v-85.67h-231.835v-179.010l260.284 1.531c0 0 71.124-330.457 409.628-330.457 0 0 243.657-20.727 351.237 205.067 107.597-225.795 351.258-205.067 351.258-205.067 338.5 0 409.626 330.457 409.626 330.457l260.284-1.531v179.010h-231.834v85.67h234.675v175.933h-237.534v253.966h-187.733v-78.033c0-70.363-78.234-67.318-78.234-67.318h-1040.998z" />
<glyph unicode="&#xe927;" glyph-name="nakapunk" d="M216.882 576v85.333h-88.882v-128h-128v-84.672h128v-43.328h-128v-85.333l128 0.717v-86.050h85.333v-85.333h256v85.333h85.333v-85.333h256v85.333h85.333v86.050l128-0.717v85.333h-128v43.328h128v84.672h-128v128h-85.333v-85.333h-593.785zM256 448h170.667v-85.333h-42.667v-42.667h-85.333v42.667h-42.667v85.333zM597.333 448h170.667v-85.333h-42.667v-42.667h-85.333v42.667h-42.667v85.333zM0 21.333h85.333v-85.333h-85.333v85.333zM469.333 21.333h85.333v-85.333h-85.333v85.333zM128 149.333h85.333v-85.333h-85.333v85.333zM810.667 149.333h85.333v-85.333h-85.333v85.333zM0 960h85.333v-85.333h-85.333v85.333zM85.333 874.667h85.333v-85.333h-85.333v85.333zM853.333 874.667h85.333v-85.333h-85.333v85.333zM469.333 874.667h85.333v-85.333h-85.333v85.333zM384 789.333h85.333v-85.333h-85.333v85.333zM554.667 789.333h85.333v-85.333h-85.333v85.333zM938.667 21.333h85.333v-85.333h-85.333v85.333zM938.667 960h85.333v-85.333h-85.333v85.333zM384 960h85.333v-85.333h-85.333v85.333zM554.667 960h85.333v-85.333h-85.333v85.333z" />
<glyph unicode="&#xe928;" glyph-name="nakaverse" d="M810.394 394.812c-44.011-53.227-93.803-107.925-147.541-161.664s-108.429-103.552-161.647-147.546c3.588-0.128 7.172-0.273 10.795-0.273 79.185 0.090 155.102 31.586 211.093 87.578s87.484 131.904 87.573 211.089c0 3.627-0.145 7.223-0.273 10.816zM934.4 806.374c-41.378 41.392-117.154 26.714-231.659-44.859-42.167-26.732-82.837-55.753-121.83-86.933-49.583 11.802-101.363 10.709-150.404-3.174-49.042-13.883-93.712-40.093-129.753-76.134s-62.251-80.709-76.134-129.75c-13.883-49.045-14.976-100.826-3.174-150.409-31.182-38.989-60.203-79.663-86.933-121.83-71.578-114.509-86.266-190.285-44.912-231.684 7.896-7.693 17.282-13.692 27.581-17.621 10.299-3.934 21.293-5.722 32.307-5.248 42.523 0 99.413 22.502 171.771 67.733 93.829 58.667 204.42 149.867 311.403 256.832s198.187 217.574 256.832 311.403c71.573 114.528 86.259 190.304 44.907 231.675zM804.48 600.192c-55.535-84.177-137.967-182.4-232.124-276.527-94.153-94.127-192.351-176.589-276.527-232.124-82.832-54.643-127.467-67.034-143.878-67.61 0.576 16.401 12.966 61.043 67.611 143.876 12.112 18.359 25.6 37.414 40.085 56.917 15.724-24.845 34.999-47.258 57.21-66.522 79.938 59.43 155.261 124.826 225.328 195.627 70.797 70.063 136.196 145.382 195.627 225.312-19.268 22.223-41.685 41.505-66.539 57.232 19.503 14.512 38.558 27.974 56.917 40.085 82.833 54.645 127.467 67.035 143.876 67.611-0.576-16.405-12.966-61.045-67.61-143.878h0.021zM128 789.333c28.28-0.032 55.392-11.281 75.389-31.278s31.245-47.109 31.278-75.389c0-5.658 2.248-11.084 6.249-15.085s9.427-6.249 15.085-6.249c5.658 0 11.084 2.248 15.085 6.249s6.249 9.427 6.249 15.085c0.032 28.28 11.281 55.392 31.278 75.389s47.109 31.245 75.389 31.278c5.658 0 11.084 2.248 15.085 6.249s6.249 9.427 6.249 15.085c0 5.658-2.248 11.084-6.249 15.085s-9.427 6.249-15.085 6.249c-28.28 0.032-55.392 11.281-75.389 31.278s-31.245 47.109-31.278 75.389c0 5.658-2.248 11.084-6.249 15.085s-9.427 6.248-15.085 6.248c-5.658 0-11.084-2.248-15.085-6.248s-6.249-9.427-6.249-15.085c-0.032-28.28-11.281-55.392-31.278-75.389s-47.109-31.245-75.389-31.278c-5.658 0-11.084-2.248-15.085-6.249s-6.249-9.427-6.249-15.085c0-5.658 2.248-11.084 6.249-15.085s9.427-6.249 15.085-6.249zM810.667 21.333c23.565 0 42.667 19.102 42.667 42.667s-19.102 42.667-42.667 42.667c-23.565 0-42.667-19.102-42.667-42.667s19.102-42.667 42.667-42.667zM85.333 362.667c23.564 0 42.667 19.102 42.667 42.667s-19.103 42.667-42.667 42.667c-23.564 0-42.667-19.102-42.667-42.667s19.103-42.667 42.667-42.667zM938.667 405.333c23.565 0 42.667 19.102 42.667 42.667s-19.102 42.667-42.667 42.667c-23.565 0-42.667-19.102-42.667-42.667s19.102-42.667 42.667-42.667z" />
<glyph unicode="&#xe929;" glyph-name="new" horiz-adv-x="1073" d="M1072.762 449.95l-118.979 135.558 16.579 179.444-176.030 39.985-92.16 155.063-165.79-71.192-165.79 71.192-92.16-155.063-176.030-39.497 16.579-179.444-118.979-136.046 118.979-135.558-16.579-179.931 176.030-39.985 92.16-155.063 165.79 71.68 165.79-71.192 92.16 155.063 176.030 39.985-16.579 179.444 118.979 135.558zM585.143 206.141h-97.524v97.524h97.524v-97.524zM585.143 401.189h-97.524v292.571h97.524v-292.571z" />
<glyph unicode="&#xe92a;" glyph-name="notes" horiz-adv-x="1463" d="M219.429 228.571c-121.187 0-219.429 98.242-219.429 219.429v292.571c0 121.187 98.242 219.429 219.429 219.429h731.429c121.19 0 219.429-98.242 219.429-219.429v-73.143h73.143c121.19 0 219.429-98.242 219.429-219.429v-292.571c0-121.19-98.238-219.429-219.429-219.429h-731.429c-121.187 0-219.429 98.238-219.429 219.429v73.143h-73.143zM950.857 813.714h-731.429c-40.395 0-73.143-32.748-73.143-73.143v-292.571c0-40.395 32.748-73.143 73.143-73.143h73.143v73.143c0 121.187 98.242 219.429 219.429 219.429h512v73.143c0 40.395-32.746 73.143-73.143 73.143zM877.714 155.429c80.794 0 146.286 65.492 146.286 146.286 0 80.791-65.492 146.286-146.286 146.286s-146.286-65.494-146.286-146.286c0-80.794 65.492-146.286 146.286-146.286zM585.143 301.714c0 40.396-32.748 73.143-73.143 73.143s-73.143-32.747-73.143-73.143c0-40.396 32.748-73.143 73.143-73.143s73.143 32.747 73.143 73.143zM1243.429 228.571c40.397 0 73.143 32.747 73.143 73.143s-32.746 73.143-73.143 73.143c-40.397 0-73.143-32.747-73.143-73.143s32.746-73.143 73.143-73.143z" />
<glyph unicode="&#xe92b;" glyph-name="notification" d="M655.232 99.166c15.185 23.381-5.103 50.167-32.981 50.167h-220.503c-27.88 0-48.167-26.786-32.982-50.167 30.426-46.848 83.211-77.833 143.235-77.833 60.019 0 112.806 30.985 143.232 77.833zM878.327 234.667h-733.087c-33.086 0-59.907 26.82-59.907 59.908 0 16.247 6.601 31.799 18.289 43.089l43.892 42.394c16.718 16.149 26.126 38.417 26.050 61.658l-0.301 91.802c-0.617 188.23 151.802 341.149 340.034 341.149 187.797 0 340.036-152.239 340.036-340.035v-93.953c0-22.63 8.99-44.335 24.994-60.339l42.667-42.667c11.315-11.315 17.673-26.662 17.673-42.667 0-33.323-27.017-60.339-60.339-60.339z" />
<glyph unicode="&#xe92c;" glyph-name="order" horiz-adv-x="819" d="M-0.002 714.24c0 86.024 0 129.036 16.741 161.893 14.726 28.902 38.224 52.4 67.126 67.126 32.857 16.741 75.869 16.741 161.893 16.741h174.080c14.336 0 21.504 0 26.982-2.79 4.818-2.454 8.735-6.37 11.187-11.187 2.79-5.476 2.79-12.645 2.79-26.982v-112.64c0-113.108 91.696-204.8 204.802-204.8h112.64c14.336 0 21.504 0 26.982-2.79 4.818-2.454 8.735-6.37 11.187-11.187 2.79-5.476 2.79-12.645 2.79-26.982v-378.88c0-86.026 0-129.034-16.742-161.894-14.725-28.902-38.221-52.398-67.123-67.123-32.86-16.742-75.868-16.742-161.894-16.742h-327.682c-86.024 0-129.036 0-161.893 16.742-28.902 14.725-52.4 38.221-67.126 67.123-16.741 32.86-16.741 75.868-16.741 161.894v532.48zM255.998 448c-28.277 0-51.2-22.922-51.2-51.2s22.923-51.2 51.2-51.2h307.202c28.278 0 51.2 22.922 51.2 51.2s-22.922 51.2-51.2 51.2h-307.202zM204.798 192c0 28.278 22.923 51.2 51.2 51.2h153.6c28.278 0 51.2-22.922 51.2-51.2s-22.922-51.2-51.2-51.2h-153.6c-28.277 0-51.2 22.922-51.2 51.2zM599.404 960c-19.994 0-36.204-16.209-36.204-36.204v-117.396c0-56.554 45.844-102.4 102.4-102.4h117.396c19.994 0 36.204 16.209 36.204 36.204 0 9.602-3.814 18.81-10.604 25.6l-183.593 183.592c-6.789 6.79-16 10.604-25.6 10.604z" />
<glyph unicode="&#xe92d;" glyph-name="p2p" horiz-adv-x="1071" d="M916.945 717.964c-4.655 4.655-13.964 9.309-18.618 9.309 37.236 23.273 60.509 60.509 60.509 107.055 0 69.818-55.855 125.673-125.673 125.673s-125.673-55.855-125.673-125.673c0-46.545 23.273-83.782 60.509-107.055-51.2-18.618-83.782-65.164-125.673-116.364l-69.818-93.091 69.818-102.4 97.745 74.473v-451.491c0-51.2 37.236-97.745 88.436-102.4 27.927 0 55.855 9.309 74.473 27.927s27.927 41.891 27.927 69.818v242.036l60.509 69.818c23.273 32.582 37.236 69.818 37.236 107.055v93.091c-4.655 74.473-41.891 144.291-111.709 172.218zM512 448l-125.673 162.909c-41.891 51.2-74.473 97.745-125.673 116.364 37.236 23.273 60.509 60.509 60.509 107.055 0 69.818-60.509 125.673-130.327 125.673-65.164 0-125.673-55.855-125.673-125.673 0-46.545 23.273-83.782 60.509-107.055-4.655 0-9.309-4.655-13.964-4.655-69.818-27.927-111.709-102.4-111.709-176.873v-93.091c0-37.236 13.964-79.127 37.236-107.055l60.509-69.818v-242.036c0-27.927 9.309-51.2 27.927-69.818s41.891-27.927 65.164-27.927c51.2 0 97.745 41.891 97.745 97.745v456.145l190.836-144.291c9.309-9.309 32.582-9.309 46.545 0 23.273 9.309 32.582 41.891 13.964 65.164l-27.927 37.236z" />
<glyph unicode="&#xe92e;" glyph-name="password" horiz-adv-x="819" d="M409.6 960c-113.108 0-204.8-91.692-204.8-204.8v-153.6h4.74c-25.495-0.002-47.588-0.067-65.925-1.565-20.242-1.654-40.375-5.305-59.748-15.176-28.901-14.726-52.4-38.222-67.126-67.124-9.871-19.374-13.522-39.506-15.176-59.75-1.567-19.174-1.566-42.46-1.565-69.448v-239.473c-0.001-26.988-0.001-50.273 1.565-69.448 1.654-20.244 5.305-40.376 15.176-59.75 14.726-28.902 38.224-52.398 67.126-67.123 19.373-9.871 39.506-13.522 59.748-15.176 19.177-1.567 42.462-1.567 69.451-1.567h393.065c26.993 0 50.278 0 69.453 1.567 20.244 1.654 40.376 5.304 59.75 15.176 28.902 14.725 52.398 38.221 67.123 67.123 9.871 19.374 13.522 39.506 15.176 59.75 1.567 19.174 1.567 42.46 1.567 69.448v239.468c0 26.988 0 50.278-1.567 69.453-1.654 20.244-5.304 40.376-15.176 59.75-14.725 28.902-38.221 52.398-67.123 67.124-19.374 9.871-39.506 13.522-59.75 15.176-18.335 1.498-40.428 1.563-65.925 1.565h4.741v153.6c0 113.108-91.694 204.8-204.8 204.8zM512 601.6h-204.8v153.6c0 56.554 45.844 102.4 102.4 102.4s102.4-45.846 102.4-102.4v-153.6zM358.4 243.2c0 28.278 22.922 51.2 51.2 51.2s51.2-22.922 51.2-51.2v-51.2c0-28.278-22.922-51.2-51.2-51.2s-51.2 22.922-51.2 51.2v51.2z" />
<glyph unicode="&#xe92f;" glyph-name="pig" horiz-adv-x="1186" d="M915.273 511.948c-26.171 8.264-48.71 20.48-65.432 35.571-7.269 6.467-17.085 16.887-27.626 29.462-5.088 5.749-9.45 11.138-13.086 15.809 7.998 21.199 14.904 36.648 20.721 48.865 2.907 5.749 11.632 24.073 1.816 42.397-4.362 7.905-15.629 21.558-41.44 22.636-52.707 2.515-99.601-9.342-138.495-34.852-7.27-4.312-11.997-5.749-19.63-4.671-2.909 0.359-6.18 0.359-9.087 0.719h-3.999c-52.346 1.796-106.507 3.593-161.034-4.312-39.622-5.749-74.52-17.248-102.872-34.494-28.717-17.245-53.072-42.036-71.247-70.78-21.084-34.493-32.353-73.656-32.353-112.82v-1.796c0.728-52.098 23.627-104.556 70.521-160.247 7.269-8.264 12.723-20.121 17.085-30.54 0.363-1.078 0.726-4.312 1.090-6.467 1.453-7.905 3.271-19.043 9.814-31.618 3.636-6.827 7.27-12.216 9.814-15.809 5.089-6.827 13.087-10.779 21.447-10.779l95.604-0.719c0 0 0 0 0.363 0 11.269 0 21.447 7.186 25.446 17.606 1.818 4.312 3.634 9.342 5.815 14.013l77.429 0.359c3.271-6.108 6.178-11.857 9.45-17.606 4.727-8.264 13.815-13.653 23.629-13.653l95.602 0.359c13.45 0 25.083 9.701 26.899 23.354 1.455 10.060 4.362 19.761 8.726 28.744 2.907 6.108 6.543 11.857 10.905 17.246 27.989 5.749 51.617 16.887 70.157 33.055 11.269 9.342 18.538 19.043 25.083 27.666 8.361 10.42 14.539 18.684 27.262 26.588 8.361 5.030 18.177 8.982 28.354 11.498 12.36 3.234 20.721 13.653 21.084 26.229l1.090 103.119c0 11.498-7.633 22.276-18.903 25.869zM707.71 509.792c0 16.168 13.45 29.103 29.809 29.103 16.72 0 29.807-12.935 29.807-29.103s-13.087-29.103-29.807-29.103c-16.359 0-29.809 12.935-29.809 29.103zM490.333 529.194c0 14.731 11.997 26.947 27.264 26.947h119.594c15.267 0 27.264-12.216 27.264-26.947s-11.997-26.947-27.264-26.947h-119.594c-15.267 0-27.264 12.216-27.264 26.947z" />
<glyph unicode="&#xe930;" glyph-name="pin" horiz-adv-x="838" d="M381.682 955.344c-186.182-13.964-339.782-148.946-372.364-321.164-23.273-111.709 0-223.417 69.818-316.508l237.382-330.473c18.618-32.582 60.509-51.2 102.4-51.2s83.782 18.618 107.055 55.855l237.382 330.473c51.2 69.818 74.473 148.945 74.473 232.726 0 111.709-46.545 218.764-130.327 293.236-88.436 79.127-204.8 121.018-325.818 107.055zM577.173 555.052c0-87.401-70.851-158.252-158.254-158.252s-158.255 70.851-158.255 158.252c0 87.402 70.853 158.255 158.255 158.255s158.254-70.853 158.254-158.255z" />
<glyph unicode="&#xe931;" glyph-name="profile_circled" d="M1024 448c0-282.767-229.233-512-512-512-282.77 0-512 229.233-512 512 0 282.77 229.23 512 512 512 282.767 0 512-229.23 512-512zM804.541 222.689c-74.342 75.848-177.946 122.911-292.544 122.911-114.593 0-218.194-47.058-292.535-122.9-16.789-17.132-16.79-44.262-0.001-61.389 74.341-75.853 177.946-122.911 292.543-122.911 114.591 0 218.194 47.058 292.531 122.9 16.794 17.132 16.794 44.262 0.005 61.389zM512 448c84.833 0 153.6 68.769 153.6 153.6s-68.767 153.6-153.6 153.6c-84.831 0-153.6-68.769-153.6-153.6s68.769-153.6 153.6-153.6z" />
<glyph unicode="&#xe932;" glyph-name="question" d="M481.707 307.627c-1.835-2.027-3.546-4.164-5.12-6.4-1.613-2.377-2.906-4.962-3.84-7.68-1.229-2.419-2.091-5.009-2.56-7.68-0.209-2.842-0.209-5.692 0-8.533-0.145-5.598 1.024-11.149 3.413-16.213 1.916-5.295 4.975-10.103 8.956-14.084s8.789-7.040 14.084-8.956c5.107-2.257 10.628-3.422 16.213-3.422s11.106 1.165 16.213 3.422c5.295 1.916 10.103 4.975 14.084 8.956s7.040 8.789 8.956 14.084c1.894 5.188 2.765 10.692 2.56 16.213 0.034 5.615-1.045 11.183-3.166 16.38-2.125 5.197-5.252 9.929-9.207 13.914-3.968 3.998-8.687 7.172-13.884 9.34-5.201 2.167-10.778 3.281-16.41 3.281s-11.209-1.114-16.41-3.281c-5.197-2.167-9.916-5.342-13.884-9.34zM512 874.667c-84.386 0-166.878-25.024-237.043-71.906s-124.852-113.519-157.145-191.482c-32.294-77.962-40.743-163.752-24.28-246.516s57.099-158.788 116.77-218.462c59.67-59.669 135.695-100.305 218.46-116.77 82.765-16.461 168.555-8.013 246.515 24.282 77.965 32.294 144.602 86.98 191.484 157.146s71.906 152.657 71.906 237.043c0 56.030-11.038 111.513-32.478 163.278s-52.868 98.801-92.489 138.421c-39.62 39.619-86.656 71.048-138.423 92.49-51.763 21.442-107.247 32.478-163.277 32.478zM512 106.667c-67.507 0-133.502 20.019-189.635 57.523-56.132 37.508-99.881 90.816-125.716 153.186s-32.594 131.004-19.424 197.214c13.17 66.213 45.679 127.033 93.416 174.769s108.556 80.245 174.769 93.416c66.21 13.17 134.844 6.411 197.214-19.424s115.678-69.584 153.186-125.716c37.504-56.132 57.523-122.123 57.523-189.635 0-90.526-35.959-177.348-99.972-241.361-64.013-64.009-150.835-99.972-241.361-99.972zM512 661.333c-22.481 0.015-44.574-5.893-64.047-17.128s-35.645-27.401-46.886-46.872c-3.087-4.856-5.16-10.287-6.094-15.965s-0.71-11.486 0.659-17.076c1.369-5.589 3.855-10.844 7.307-15.447s7.8-8.462 12.783-11.341c4.982-2.88 10.495-4.721 16.206-5.417 5.713-0.691 11.507-0.226 17.033 1.379 5.53 1.603 10.675 4.308 15.13 7.951 4.45 3.643 8.124 8.15 10.79 13.249 3.759 6.511 9.173 11.913 15.693 15.66 6.515 3.746 13.909 5.704 21.427 5.674 11.315 0 22.17-4.495 30.17-12.497s12.497-18.854 12.497-30.17c0-11.315-4.497-22.17-12.497-30.17s-18.854-12.497-30.17-12.497c-11.315 0-22.17-4.497-30.17-12.497s-12.497-18.854-12.497-30.17v-42.667c0-11.315 4.497-22.17 12.497-30.17s18.854-12.497 30.17-12.497c11.315 0 22.17 4.497 30.17 12.497s12.497 18.854 12.497 30.17v7.68c28.22 10.24 51.942 30.071 67.021 56.026 15.078 25.958 20.553 56.388 15.471 85.974s-20.403 56.442-43.281 75.877c-22.878 19.435-51.861 30.211-81.877 30.444z" />
<glyph unicode="&#xe933;" glyph-name="receipt" horiz-adv-x="922" d="M286.72-40.955l71.68 53.76 71.68-53.76c18.205-13.655 43.235-13.655 61.44 0l71.68 53.76 71.68-53.76c18.207-13.655 43.233-13.655 61.44 0l71.68 53.76 69.622-58.020c33.347-27.791 83.978-4.076 83.978 39.332v907.772c0 43.409-50.632 67.123-83.978 39.333l-69.622-58.019-71.68 53.76c-18.207 13.653-43.233 13.653-61.44 0l-71.68-53.76-71.68 53.76c-18.205 13.653-43.235 13.653-61.44 0l-71.68-53.76-71.68 53.76c-18.205 13.653-43.235 13.653-61.44 0l-71.68-53.76-69.623 58.019c-33.348 27.79-83.977 4.076-83.977-39.333v-907.772c0-43.407 50.629-67.123 83.977-39.332l69.623 58.020 71.68-53.76c18.205-13.655 43.235-13.655 61.44 0zM204.8 550.403c0 28.277 22.923 51.2 51.2 51.2h409.6c28.278 0 51.2-22.923 51.2-51.2s-22.922-51.2-51.2-51.2h-409.6c-28.277 0-51.2 22.923-51.2 51.2zM256 396.805c-28.277 0-51.2-22.927-51.2-51.2 0-28.278 22.923-51.2 51.2-51.2h204.8c28.277 0 51.2 22.922 51.2 51.2 0 28.273-22.923 51.2-51.2 51.2h-204.8z" />
<glyph unicode="&#xe934;" glyph-name="refresh" d="M665.6 448.012c0-84.831-68.769-153.6-153.6-153.6s-153.6 68.769-153.6 153.6c0 84.831 68.769 153.6 153.6 153.6s153.6-68.769 153.6-153.6zM153.592 812.687c95.604 94.093 224.269 146.981 358.408 147.325 282.634-0.332 511.667-229.368 512-512 0-28.275-22.922-51.202-51.2-51.202s-51.2 22.927-51.2 51.202c0.41 167.561-101.524 318.389-257.152 380.497-155.624 62.108-333.395 22.905-448.466-98.897h116.81c28.277 0 51.2-22.923 51.2-51.2s-22.923-51.2-51.2-51.2h-230.4c-13.581-0.008-26.609 5.384-36.213 14.988s-14.995 22.631-14.987 36.212v230.4c0 28.277 22.923 51.2 51.2 51.2s51.2-22.923 51.2-51.2v-96.125zM690.616 268.81h230.4c13.583 0.010 26.609-5.381 36.214-14.986s14.996-22.63 14.986-36.214v-230.4c0-28.273-22.922-51.2-51.2-51.2s-51.2 22.927-51.2 51.2v95.611c-146.964-144.584-366.385-186.752-556.471-106.947-190.087 79.811-313.642 265.979-313.344 472.138 0 28.277 22.923 51.2 51.2 51.2s51.2-22.923 51.2-51.2c-0.409-167.559 101.526-318.389 257.153-380.495 155.626-62.111 333.398-22.907 448.47 98.893h-117.407c-28.278 0-51.2 22.927-51.2 51.2 0 28.278 22.922 51.2 51.2 51.2z" />
<glyph unicode="&#xe935;" glyph-name="reply" horiz-adv-x="1078" d="M0 798.316c0 89.295 72.389 161.684 161.684 161.684h754.526c89.298 0 161.684-72.389 161.684-161.684v-538.947c0-89.298-72.386-161.684-161.684-161.684h-573.33c-12.608 0-24.817-4.419-34.502-12.493l-131.584-109.654c-70.207-58.503-176.795-8.58-176.795 82.809v739.969zM269.474 636.632c0-29.765 24.13-53.895 53.895-53.895h431.158c29.766 0 53.895 24.13 53.895 53.895s-24.129 53.895-53.895 53.895h-431.158c-29.765 0-53.895-24.13-53.895-53.895zM323.368 474.947c-29.765 0-53.895-24.129-53.895-53.895s24.13-53.895 53.895-53.895h215.579c29.766 0 53.895 24.129 53.895 53.895s-24.129 53.895-53.895 53.895h-215.579z" />
<glyph unicode="&#xe936;" glyph-name="safe" horiz-adv-x="1138" d="M796.444 504.889c0-31.419-25.469-56.889-56.889-56.889s-56.889 25.47-56.889 56.889c0 31.419 25.469 56.889 56.889 56.889s56.889-25.47 56.889-56.889zM170.667 960c-94.256 0-170.667-76.41-170.667-170.667v-568.889c0-74.308 47.491-137.529 113.778-160.956v-9.711c0-62.839 50.94-113.778 113.778-113.778s113.778 50.938 113.778 113.778h455.111c0-62.839 50.938-113.778 113.778-113.778s113.778 50.938 113.778 113.778v9.711c66.287 23.427 113.778 86.647 113.778 160.956v568.889c0 94.256-76.407 170.667-170.667 170.667h-796.444zM284.444 618.667c0 31.419-25.47 56.889-56.889 56.889s-56.889-25.47-56.889-56.889v-227.556c0-31.42 25.47-56.889 56.889-56.889s56.889 25.469 56.889 56.889v227.556zM528.668 294.002c-22.217 22.215-22.217 58.237 0 80.452l56.855 56.858c-10.661 22.278-16.629 47.23-16.629 73.575s5.968 51.295 16.629 73.573l-56.861 56.86c-22.216 22.217-22.216 58.237 0 80.453s58.238 22.216 80.453 0l56.855-56.856c22.283 10.664 47.241 16.637 73.591 16.637 26.345 0 51.297-5.969 73.574-16.63l56.86 56.858c22.215 22.216 58.237 22.216 80.452 0s22.215-58.237 0-80.453l-56.855-56.855c10.661-22.281 16.634-47.237 16.634-73.587s-5.973-51.308-16.634-73.589l56.849-56.85c22.215-22.215 22.215-58.237 0-80.452-22.215-22.221-58.237-22.221-80.452 0l-56.855 56.855c-22.278-10.661-47.229-16.629-73.574-16.629-26.351 0-51.308 5.968-73.586 16.634l-56.855-56.855c-22.215-22.215-58.237-22.215-80.453 0z" />
<glyph unicode="&#xe937;" glyph-name="search" horiz-adv-x="973" d="M820.833 185.974c63.058 78.833 100.767 178.826 100.767 287.626 0 254.493-206.305 460.8-460.8 460.8-254.493 0-460.8-206.307-460.8-460.8 0-254.495 206.307-460.8 460.8-460.8 108.8 0 208.794 37.709 287.626 100.767l136.97-136.97c19.994-19.994 52.413-19.994 72.407 0s19.994 52.413 0 72.407l-136.97 136.97zM819.2 473.6c0-197.939-160.461-358.4-358.4-358.4s-358.4 160.461-358.4 358.4c0 197.939 160.461 358.4 358.4 358.4s358.4-160.461 358.4-358.4z" />
<glyph unicode="&#xe938;" glyph-name="search2" d="M469.686 864.352v-93.834c-146.731-22.585-259.525-158.377-259.525-322.519 0-179.945 135.559-325.818 302.78-325.818 167.219 0 302.783 145.873 302.783 325.818 0 89.972-33.89 171.427-88.683 230.388l-61.17-65.826c39.135-42.115 63.344-100.297 63.344-164.563 0-128.531-96.829-232.727-216.273-232.727-119.443 0-216.272 104.197-216.272 232.727 0 112.592 74.301 206.509 173.017 228.072v-96.381c-50.399-19.169-86.508-70.892-86.508-131.691 0-77.121 58.097-139.636 129.763-139.636s129.764 62.515 129.764 139.636c0 38.558-14.527 73.469-38.009 98.738l-48.5-52.192v465.455h-86.509v-2.087c-242.505-23.516-432.543-242.833-432.543-509.913 0-282.768 213.022-512 475.798-512s475.797 229.232 475.797 512c0 141.385-53.253 269.385-139.357 362.039l-61.17-65.826c70.447-75.808 114.018-180.535 114.018-296.213 0-231.359-174.289-418.909-389.288-418.909s-389.289 187.55-389.289 418.909c0 215.624 151.392 393.199 346.034 416.352z" />
<glyph unicode="&#xe939;" glyph-name="store" horiz-adv-x="1126" d="M384.925 960.003h356.549c0.65 0.013 1.3 0.012 1.951 0h98.703c63.345 0 120.197-38.889 143.155-97.928l91.546-235.396c22.241-57.19-2.196-119.911-52.828-148.578v-388.496c0-84.833-68.767-153.6-153.6-153.6h-614.4c-84.831 0-153.6 68.767-153.6 153.6v388.497c-50.631 28.667-75.066 91.387-52.826 148.577l91.543 235.396c22.96 59.040 79.81 97.928 143.156 97.928h98.698c0.649 0.012 1.3 0.013 1.954 0zM862.664 591.922c0.778-0.366 1.556-0.742 2.33-1.129l35.922-17.96c21.038-10.518 45.138-13.164 67.958-7.46 10.604 2.651 16.476 14.005 12.518 24.193l-91.546 235.396c-7.654 19.68-26.604 32.643-47.718 32.643h-36.398l56.934-265.681zM701.005 857.603l58.301-272.069-11.059-4.424c-36.623-14.648-77.471-14.648-114.094 0l-19.753 7.902v268.592h86.605zM425.389 857.603h86.611v-268.592l-19.754-7.901c-36.62-14.648-77.471-14.648-114.092 0l-11.065 4.426 58.3 272.067zM320.665 857.603l-56.932-265.683c-0.779-0.366-1.555-0.741-2.327-1.127l-35.92-17.96c-21.036-10.518-45.14-13.164-67.957-7.46-10.605 2.651-16.479 14.005-12.517 24.193l91.543 235.396c7.653 19.68 26.603 32.643 47.719 32.643h36.391zM512 345.605c-56.554 0-102.4-45.85-102.4-102.4v-179.2c0-14.141 11.462-25.6 25.6-25.6h256c14.136 0 25.6 11.459 25.6 25.6v179.2c0 56.55-45.844 102.4-102.4 102.4h-102.4z" />
<glyph unicode="&#xe93a;" glyph-name="substack" horiz-adv-x="896" d="M895.305 502.647v-559.787l-448.853 314.027-438.614-314.027v559.787h887.467zM895.305 953.208v-122.88h-887.467v122.88h887.467zM7.837 734.755h887.467v-136.533h-887.467v136.533z" />
<glyph unicode="&#xe93b;" glyph-name="support" horiz-adv-x="1195" d="M612.714 959.728c-96.068 3.323-193.13-23.849-276.934-81.829-94.118-65.184-159.889-161.449-190.188-269.060-8.364 1.055-18.388 0.587-30.279-2.895-44.413-13.066-77.823-50.787-92.845-84.016-19.482-43.291-27.696-100.56-19.029-159.672 8.609-58.928 32.628-107.506 62.67-137.67 30.127-30.174 64.15-39.977 97.946-32.614 50.318 11.131 75.269 19.459 68.225 68.055l-34.117 235.551c6.884 127.473 70.554 247.48 177.052 321.28 142.541 98.699 329.417 92.376 465.398-15.815 94.58-75.163 149.497-187.79 155.836-306.018l-23.856-164.765c-53.204-150.91-185.098-255.447-337.722-270.285h-101.632c-26.225 0-47.336-21.883-47.336-49.039v-25.88c0-27.163 21.111-49.056 47.336-49.056h128.14c26.211 0 47.241 21.893 47.241 49.056v13.527c115.091 29.116 215.545 102.434 280.965 204.67l41.049-11.278c33.41-8.984 67.84 2.451 97.956 32.614 30.034 30.174 54.043 78.732 62.662 137.66 8.694 59.116 0.242 116.285-19.023 159.679-19.33 43.39-48.121 70.95-81.357 80.835-13.93 4.154-29.034 5.68-42.001 6.089-27.392 97.302-83.801 185.797-165.086 250.419-79.927 63.571-174.995 97.215-271.070 100.478v-0.021zM268.2 473.44c0 191.373 146.899 336.689 329.174 336.689l-0.014 0.005c182.333 0 329.124-145.304 329.124-336.691 0-191.488-146.79-336.715-329.124-336.715-47.763 0-92.962 10.035-133.83 28.177l-85.982-49.063c-26.044-14.841-46.132 5.096-39.662 34.737l19.642 90.074c-55.344 59.614-89.33 140.855-89.33 232.786zM430.053 537.023c34.28 0 62.15-28.433 62.15-63.587 0-35.069-27.866-63.58-62.15-63.58-34.355 0-62.157 28.508-62.157 63.58 0 35.147 27.802 63.587 62.157 63.587zM659.514 473.436c0 35.154-27.785 63.587-62.14 63.587-34.386 0-62.177-28.44-62.177-63.587 0-35.072 27.791-63.58 62.177-63.58 34.359 0 62.14 28.512 62.14 63.58zM826.894 473.436c-0.079 35.154-27.87 63.587-62.15 63.587-34.359 0-62.235-28.44-62.235-63.587 0-35.072 27.87-63.58 62.235-63.58 34.284 0 62.075 28.512 62.15 63.58z" />
<glyph unicode="&#xe93c;" glyph-name="telegram" horiz-adv-x="1237" d="M1200.354 863.596l-181.675-862.337c-13.696-60.843-49.451-75.989-100.224-47.317l-276.779 205.312-133.547-129.28c-14.763-14.891-27.136-27.307-55.637-27.307l19.883 283.733 512.981 466.604c22.315 20.011-4.821 31.104-34.645 11.093l-634.199-401.964-273.024 86.016c-59.392 18.645-60.459 59.776 12.373 88.449l1067.906 414.123c49.451 18.645 92.715-11.093 76.587-87.083v-0.043z" />
<glyph unicode="&#xe93d;" glyph-name="ticket" horiz-adv-x="1280" d="M192 960h896c106.042 0 192-85.962 192-192v-128c0-35.346-30.368-62.674-61.376-79.646-39.699-21.734-66.624-63.9-66.624-112.354s26.925-90.62 66.624-112.354c31.008-16.971 61.376-44.299 61.376-79.646v-128c0-106.042-85.958-192-192-192h-896c-106.038 0-192 85.958-192 192v128c0 35.347 30.369 62.675 61.374 79.646 39.703 21.734 66.626 63.9 66.626 112.354s-26.923 90.62-66.626 112.354c-31.005 16.972-61.374 44.3-61.374 79.646v128c0 106.038 85.962 192 192 192zM700.448 658.087c-19.923 57.316-100.98 57.316-120.904 0l-15.21-43.756c-8.789-25.284-32.385-42.428-59.148-42.974l-46.314-0.943c-60.667-1.236-85.715-78.327-37.361-114.987l36.914-27.987c21.331-16.172 30.344-43.911 22.593-69.533l-13.414-44.34c-17.571-58.080 48.006-105.722 97.814-71.066l38.024 26.458c21.972 15.29 51.139 15.29 73.11 0l38.022-26.458c49.811-34.656 115.386 12.986 97.818 71.066l-13.414 44.34c-7.75 25.622 1.261 53.361 22.592 69.533l36.915 27.987c48.352 36.66 23.302 113.75-37.363 114.987l-46.317 0.943c-26.758 0.546-50.355 17.69-59.142 42.974l-15.213 43.756z" />
<glyph unicode="&#xe93e;" glyph-name="tiktok" horiz-adv-x="896" d="M471.050 959.136c55.84 0.864 111.36 0.352 166.816 0.864 3.36-65.312 26.848-131.84 74.656-178.016 47.712-47.328 115.2-68.992 180.864-76.32v-171.808c-61.536 2.016-123.36 14.816-179.2 41.312-24.32 11.008-46.976 25.184-69.152 39.68-0.288-124.672 0.512-249.184-0.8-373.344-3.328-59.648-23.008-119.008-57.696-168.16-55.808-81.824-152.672-135.168-252.16-136.832-61.025-3.488-121.985 13.152-173.985 43.808-86.176 50.816-146.816 143.84-155.648 243.68-1.024 21.344-1.376 42.656-0.512 63.488 7.68 81.184 47.84 158.848 110.176 211.68 70.656 61.536 169.632 90.848 262.305 73.504 0.864-63.2-1.664-126.336-1.664-189.536-42.336 13.696-91.809 9.856-128.801-15.84-27.008-17.504-47.52-44.32-58.208-74.656-8.832-21.632-6.304-45.664-5.792-68.64 10.144-70.016 77.472-128.864 149.345-122.496 47.648 0.512 93.312 28.16 118.144 68.64 8.032 14.176 17.024 28.672 17.504 45.344 4.192 76.32 2.528 152.32 3.040 228.64l0.8 514.976-0.032 0.032z" />
<glyph unicode="&#xe93f;" glyph-name="top" horiz-adv-x="819" d="M409.6-37.105c217.733 0 409.6 153.6 409.6 358.4 0 204.798-153.6 307.198-204.8 358.398-71.992 71.992-94.612 166.599-101.1 231.701-3.594 36.041-38.374 61.601-68.557 41.583-59.028-39.147-142.472-119.043-188.744-273.284-32.898-109.66 0-204.8 0-204.8s-51.2 25.6-76.8 102.4c-8.433 25.298-19.643 56.152-30.886 86.156-16.181 43.182-74.552 42.8-88.773-1.067-28.054-86.533-59.54-203.007-59.54-289.887 0-256 191.869-409.6 409.6-409.6z" />
<glyph unicode="&#xe940;" glyph-name="trade" horiz-adv-x="931" d="M349.091 773.818c51.2 0 93.091 41.891 93.091 93.091s-41.891 93.091-93.091 93.091c-51.2 0-93.091-41.891-93.091-93.091s41.891-93.091 93.091-93.091zM674.444 389.818v-81.455h256.465v-69.818h-256.465v-81.455l-115.898 116.364 115.898 116.364zM558.545 110.545h256.465v81.455l115.898-116.364-115.898-116.364v81.455h-256.465v69.818zM46.545-40.727l128 656.291-81.455-34.909v-155.927h-93.091v218.764l244.364 100.073c11.636 4.655 23.273 6.982 34.909 6.982 32.582 0 62.836-16.291 79.127-44.218l44.218-74.473c41.891-67.491 116.364-114.036 202.473-114.036v-93.091c-102.4 0-193.164 46.545-253.673 121.018l-27.927-139.636 95.418-95.418v-351.418h-93.091v279.273l-100.073 93.091-81.455-372.364h-97.745z" />
<glyph unicode="&#xe941;" glyph-name="trophy" d="M725.97 960h-427.94c-80.239 0-144.43-62.061-144.43-134.465v-294.788c0-170.668 133.731-315.477 304.907-341.333v-149.98h-160.477c-32.096 0-53.493-20.685-53.493-51.717s21.397-51.717 53.493-51.717h427.94c32.097 0 53.494 20.685 53.494 51.717s-21.396 51.717-53.494 51.717h-160.476v149.98c171.177 25.856 304.906 165.494 304.906 341.333v294.788c0 72.404-64.189 134.465-144.43 134.465zM51.2 857.6c-30.72 0-51.2-18.618-51.2-46.545v-265.309c0-27.927 20.48-46.545 51.2-46.545s51.2 18.618 51.2 46.545v265.309c0 23.272-20.48 46.545-51.2 46.545zM972.8 857.6c-30.72 0-51.2-18.618-51.2-46.545v-265.309c0-27.927 20.48-46.545 51.2-46.545s51.2 18.618 51.2 46.545v265.309c0 23.272-20.48 46.545-51.2 46.545z" />
<glyph unicode="&#xe942;" glyph-name="tune" d="M128 661.333c0 23.564 19.103 42.667 42.667 42.667h682.667c23.565 0 42.667-19.103 42.667-42.667s-19.102-42.667-42.667-42.667h-682.667c-23.564 0-42.667 19.103-42.667 42.667zM128 234.667c0 23.565 19.103 42.667 42.667 42.667h682.667c23.565 0 42.667-19.102 42.667-42.667s-19.102-42.667-42.667-42.667h-682.667c-23.564 0-42.667 19.102-42.667 42.667zM426.667 106.667c70.694 0 128 57.306 128 128s-57.306 128-128 128c-70.692 0-128-57.306-128-128s57.308-128 128-128zM597.333 533.333c70.694 0 128 57.308 128 128s-57.306 128-128 128c-70.694 0-128-57.308-128-128s57.306-128 128-128z" />
<glyph unicode="&#xe943;" glyph-name="twitter" horiz-adv-x="1237" d="M1202.419 824.398c-44.843-19.84-92.288-32.939-140.8-38.912 51.2 31.189 89.557 80.213 107.989 138.027-48.128-29.184-100.779-49.749-155.733-60.8-75.52 83.499-196.864 104.405-295.125 50.901s-148.651-167.936-122.539-278.315c-196.78 10.155-380.033 104.96-504.193 260.907-21.547-38.315-32.853-81.707-32.811-125.867-0.171-83.285 40.619-161.152 108.587-207.36-38.912 1.067-76.971 11.733-110.976 31.019v-3.029c0.597-118.487 82.901-220.161 196.907-243.244-21.291-6.613-43.392-10.069-65.621-10.325-15.403 0.171-30.763 1.621-45.952 4.267 32.299-101.333 124.032-170.667 228.523-172.715-86.101-69.035-192.384-106.709-301.909-107.051-19.925-0.085-39.893 1.152-59.648 3.669 111.829-73.6 242.176-112.683 375.296-112.512 185.601-1.963 364.161 72.192 495.574 205.781s204.629 315.392 203.179 504.535c0 10.325 0 21.291 0 32.213 46.805 35.584 87.211 79.232 119.339 128.939l-0.085-0.128z" />
<glyph unicode="&#xe944;" glyph-name="verified" d="M321.569 72.647c23.093 4.944 46.84-4.892 59.672-24.718 50.105-77.414 94.784-111.929 130.759-111.929s80.651 34.514 130.759 111.929c12.834 19.826 36.58 29.662 59.671 24.718 90.175-19.308 146.17-12.123 171.611 13.312 25.435 25.441 32.62 81.436 13.312 171.611-4.944 23.091 4.892 46.837 24.718 59.671 77.414 50.108 111.929 94.784 111.929 130.759s-34.514 80.654-111.929 130.759c-19.826 12.832-29.662 36.579-24.718 59.672 19.308 90.171 12.123 146.17-13.312 171.608-25.441 25.438-81.436 32.625-171.611 13.313-23.091-4.945-46.837 4.891-59.671 24.717-50.108 77.416-94.784 111.931-130.759 111.931s-80.654-34.516-130.759-111.931c-12.832-19.826-36.579-29.662-59.672-24.717-90.171 19.312-146.17 12.125-171.608-13.313s-32.625-81.437-13.313-171.608c4.945-23.093-4.891-46.84-24.717-59.672-77.416-50.105-111.931-94.784-111.931-130.759s34.516-80.651 111.931-130.759c19.826-12.834 29.662-36.58 24.717-59.671-19.312-90.175-12.125-146.17 13.313-171.611 25.438-25.435 81.437-32.62 171.608-13.312zM455.108 414.678l244.215 244.218 80.458-80.453-324.673-324.673-210.893 210.895 80.453 80.453 130.44-130.44z" />
<glyph unicode="&#xe945;" glyph-name="wallet" d="M153.6 960h614.4c84.833 0 153.6-68.769 153.6-153.6v-59.94c59.658-21.086 102.4-77.981 102.4-144.86v-512c0-84.833-68.767-153.6-153.6-153.6h-716.8c-84.831 0-153.6 68.767-153.6 153.6v716.8c0 84.831 68.769 153.6 153.6 153.6zM153.6 857.6c-28.277 0-51.2-22.923-51.2-51.2s22.923-51.2 51.2-51.2h665.6v51.2c0 28.277-22.922 51.2-51.2 51.2h-614.4zM768 448c-56.556 0-102.4-45.844-102.4-102.4s45.844-102.4 102.4-102.4h102.4c28.278 0 51.2 22.922 51.2 51.2v102.4c0 28.278-22.922 51.2-51.2 51.2h-102.4z" />
<glyph unicode="&#xe946;" glyph-name="why_blockchain" horiz-adv-x="970" d="M195.328 933.261c-20.797 35.651-72.309 35.651-93.106 0l-94.799-162.513c-20.959-35.929 4.958-81.051 46.553-81.051h189.597c41.596 0 67.512 45.122 46.553 81.051l-94.799 162.513zM633.829 851.369c-59.532 0-107.789-48.26-107.789-107.789v-538.946c0-119.059-96.52-215.579-215.579-215.579-119.061 0-215.579 96.52-215.579 215.579v323.367c0 29.766 24.13 53.895 53.895 53.895s53.895-24.129 53.895-53.895v-323.367c0-59.532 48.259-107.789 107.789-107.789 59.532 0 107.789 48.257 107.789 107.789v538.946c0 119.061 96.52 215.579 215.579 215.579s215.579-96.518 215.579-215.579v-269.474c0-29.766-24.129-53.894-53.895-53.894s-53.895 24.128-53.895 53.894v269.474c0 59.53-48.257 107.789-107.789 107.789zM795.513 312.433c-89.298 0-161.684-72.386-161.684-161.684 0-89.293 72.386-161.684 161.684-161.684 89.293 0 161.684 72.391 161.684 161.684 0 89.298-72.391 161.684-161.684 161.684z" />
</font>
</defs>
</svg>
